<svg xmlns="http://www.w3.org/2000/svg" width="939.624" height="270.223" viewBox="0 0 939.624 270.223">
  <g id="title" transform="translate(-568.758 457.313)">
    <path id="Path_376" data-name="Path 376" d="M35.625-24.668a6.209,6.209,0,0,1-2.08-.439q-1.2-.439-3.135-1.26-1.289-.586-2.52-1.055a5.871,5.871,0,0,0-1.934-.469.99.99,0,0,0-.732.264,4.581,4.581,0,0,0-.615.85,4.272,4.272,0,0,1-.85,1.084,1.867,1.867,0,0,1-1.26.381q-1.7,0-1.7-1.816a8.633,8.633,0,0,1,1.348-2.812q1.348-2.227,1.582-2.637a3.168,3.168,0,0,1,.908-1.113,2.241,2.241,0,0,1,1.318-.352q1.289,0,1.289,1.113a5.028,5.028,0,0,1-.234,1.289,3.824,3.824,0,0,0-.293,1.348q0,.469,1.289,1.113L29.121-30.7a32.979,32.979,0,0,0,1.9-2.93,4.887,4.887,0,0,0,.615-2.4q0-.469-.879-.469a17.7,17.7,0,0,0-3.691.293,14.186,14.186,0,0,0-3.281,1.348,5.836,5.836,0,0,0-1.816,1.172,3.173,3.173,0,0,0-.234,1.523,5.247,5.247,0,0,1-.293,1.67q-.234.557-1.23.557-1.758,0-1.758-4.277,0-.176-.029-1.348a4.943,4.943,0,0,1,.322-2.021,1.142,1.142,0,0,1,1.055-.85,1.794,1.794,0,0,1,1.23.469q.527.469.7.469a.787.787,0,0,0,.439-.205q.264-.205.322-.264a15.83,15.83,0,0,1,5.186-2.4,21.461,21.461,0,0,1,5.889-.937,2.645,2.645,0,0,1,2.578,1.582,8.136,8.136,0,0,1,.762,3.574,5.172,5.172,0,0,1-.645,2.637q-.293.469-2.051,2.52a20.149,20.149,0,0,1-2.051,2.227,8.49,8.49,0,0,0,1.7,1,11.916,11.916,0,0,1,1.9,1.084,1.461,1.461,0,0,1,.674,1.2A.725.725,0,0,1,35.625-24.668ZM11.777-27.832q0,1.348-1.406,1.348a5.586,5.586,0,0,1-2.93-1,2.783,2.783,0,0,1-1.582-2.285,1.274,1.274,0,0,1,.615-1.113,2.427,2.427,0,0,1,1.377-.41,4.072,4.072,0,0,1,2.607,1.113A3.12,3.12,0,0,1,11.777-27.832ZM30-7.441a7.244,7.244,0,0,0-.557,2.49q-.146,1.67-.264,4.6-.117,3.34-.322,5.156a5.006,5.006,0,0,1-.732,2.461,1.9,1.9,0,0,1-1.465.645q-1.289,0-1.289-3.223a45.1,45.1,0,0,1,.586-5.977,42.734,42.734,0,0,0,.586-5.918.947.947,0,0,0-.527-.879,2.372,2.372,0,0,0-1.172-.293q-.352,0-1.143.791T22.09-5.8a32.473,32.473,0,0,1-2.637,2.93,2.934,2.934,0,0,1-1.816,1q-1.113,0-1.113-.937a5.173,5.173,0,0,1,1-2.754q1-1.523,2.813-3.809,1.992-2.285,2.051-2.93l-.234-.117a4.677,4.677,0,0,0-1.23.176q-.645.176-.879.234a7.439,7.439,0,0,1-2.109.469,1.588,1.588,0,0,1-1.172-.732,2.212,2.212,0,0,1-.586-1.318,2.147,2.147,0,0,1,1.436-1.934,25.806,25.806,0,0,1,4.131-1.465q.879-.234,1.7-.5a4.6,4.6,0,0,0,1.23-.557h-.059a2.992,2.992,0,0,0,2.109-.7,4.236,4.236,0,0,0,.293-1.641,13.791,13.791,0,0,1,.557-2.959q.381-1.143,1.318-1.143a1.179,1.179,0,0,1,1.26.732,6.406,6.406,0,0,1,.264,2.08,7.711,7.711,0,0,0,.176,1.465.506.506,0,0,0,.527.41,3.113,3.113,0,0,0,1-.205q.586-.205.938-.322a14.2,14.2,0,0,1,4.336-.527,3.825,3.825,0,0,1,1.67.264q.5.264.5,1.318a2.493,2.493,0,0,1-1.7,2.227,28.981,28.981,0,0,1-4.629,1.641q-1.465.41-2.2.674t-.791.557a5.213,5.213,0,0,0-.117,1l.059,1.7q.059.586.059,1.7.527,0,1.7-.117l1.7-.059a52.515,52.515,0,0,1,5.391.381,30.334,30.334,0,0,1,6.27,1.318q2.813.938,2.813,2.4a2.411,2.411,0,0,1-.82,1.7,2.725,2.725,0,0,1-.937.117,4.269,4.269,0,0,1-1.816-.439q-.937-.439-1.055-.5a27.535,27.535,0,0,0-6.152-1.846,34.145,34.145,0,0,0-6.5-.791A1.418,1.418,0,0,0,30-7.441ZM10.137-18.809a1.289,1.289,0,0,1-1.055,1.348,9.5,9.5,0,0,1-2.52.293q-.176,0-.967.029A2.491,2.491,0,0,1,4.277-17.4a.947.947,0,0,1-.527-.879,1.181,1.181,0,0,1,.791-1.23A5.7,5.7,0,0,1,6.5-19.8a23.576,23.576,0,0,1,2.637.117Q10.137-19.57,10.137-18.809ZM5.332-5.859q-1.582,0-1.582-1.465A5.048,5.048,0,0,1,5.068-9.609a25.139,25.139,0,0,1,2.9-3.047q1.582-1.406,2.227-1.406,1.582,0,1.582,1.523a1.9,1.9,0,0,1-.176.938A31.63,31.63,0,0,1,8.408-7.91Q6.387-5.859,5.332-5.859Zm21.152-4.277q.7,0,.7-1.582v-.293q0-.82-.352-.937-.293.059-.5.762a4.242,4.242,0,0,0-.205,1.113Q26.133-10.137,26.484-10.137ZM93.457-7.148a1.531,1.531,0,0,1-.615,1.289,2.3,2.3,0,0,1-1.436.469,8.628,8.628,0,0,1-1.2-.264q-.732-.205-1.2-.381A23.851,23.851,0,0,1,81.826-9.99a30.491,30.491,0,0,1-5.889-6.182q-.41-.645-.645-.645a3.561,3.561,0,0,0-1.318.762q-1.025.762-2.256,1.816a86.005,86.005,0,0,1-8.584,6.357A13.725,13.725,0,0,1,55.84-5.449a1.246,1.246,0,0,1-1.025-.645,2.2,2.2,0,0,1-.439-1.23,1.339,1.339,0,0,1,.293-.762,15.441,15.441,0,0,1,2.607-1.963q2.314-1.553,2.959-1.963L63.164-14a69.825,69.825,0,0,0,9.023-7.5,46.291,46.291,0,0,1-3.955-6.885,16,16,0,0,1-1.846-6.533q0-1.406,1-1.406.527,0,1.553,1.348t1.846,2.637q.82,1.289,1.113,1.7a115.66,115.66,0,0,0,9.4,12.07A59.234,59.234,0,0,0,91.758-9.434a6.64,6.64,0,0,1,1.289,1.055A1.8,1.8,0,0,1,93.457-7.148Zm13.184-20.684a5.012,5.012,0,0,1,.557-2.2q.557-1.143,1.553-2.783a2.3,2.3,0,0,0,.264-.732,5.878,5.878,0,0,1,.146-.615,2.492,2.492,0,0,1,.41-1.23,1.172,1.172,0,0,1,1-.469q.938,0,1.172.381a2.821,2.821,0,0,1,.293,1.23q.059.85.645.85a22.013,22.013,0,0,0,2.7-.234q.41-.059,1.084-.117t1.611-.059q.938,0,.938.82a1.388,1.388,0,0,1-.234.879q-.352.41-4.512.938-.469.059-1.494.205a9.478,9.478,0,0,0-1.377.264,1.3,1.3,0,0,0-.7.527,11.424,11.424,0,0,0-.7,1.172,8.09,8.09,0,0,1-1.113,1.611,1.775,1.775,0,0,1-1.348.557Q106.641-26.836,106.641-27.832ZM126.5-23.086a1.475,1.475,0,0,1,.146-.791.979.979,0,0,1,.527-.322,1.23,1.23,0,0,0,.615-.41,5.785,5.785,0,0,0,.527-2.578,12.535,12.535,0,0,1,.586-3.105,1.519,1.519,0,0,1,1.523-1.113,2.224,2.224,0,0,1,1.318.322,1.4,1.4,0,0,1,.439,1.2,4.62,4.62,0,0,1-.088.908,4.62,4.62,0,0,0-.088.908,1.632,1.632,0,0,0,.117.7q.117.234.586.234a5.628,5.628,0,0,0,1.875-.41,6.845,6.845,0,0,1,1.816-.352,1.641,1.641,0,0,1,.82.234.716.716,0,0,1,.41.645.664.664,0,0,1-.176.439q-.176.205-.234.264a4.751,4.751,0,0,0-1.025,1.816,16.446,16.446,0,0,0-.439,2.578,7.673,7.673,0,0,1-.557,2.109q-.439,1.055-.557,1.289a13.361,13.361,0,0,0-1,2.52l1.055,1a24.529,24.529,0,0,0,2.256,1.992q1.2.938,1.553,1.23a42.394,42.394,0,0,1,3.428,2.813,15.069,15.069,0,0,1,2.549,3.281,5.68,5.68,0,0,1,1.055,2.7,1.339,1.339,0,0,1-.381.938,1.2,1.2,0,0,1-.908.41q-1.289,0-3.779-2.08t-6.064-5.537a21.953,21.953,0,0,0-3.105-2.754,1.766,1.766,0,0,0-.908.557,13.783,13.783,0,0,0-1.26,1.318,29.233,29.233,0,0,1-2.549,2.4,3.306,3.306,0,0,1-2.021.879,12.058,12.058,0,0,0-1.641.293,5.621,5.621,0,0,1-1.641.352,5.793,5.793,0,0,1-.82-.059,5.794,5.794,0,0,0-.82-.059q-.293,0-.645.527a11.492,11.492,0,0,0-.7,1.23,17,17,0,0,1-2.227,3.281A3.7,3.7,0,0,1,113.2-.059a1.955,1.955,0,0,1-1.172-.381,1.2,1.2,0,0,1-.527-1.025,2.417,2.417,0,0,1,.352-1.113,11.814,11.814,0,0,1,.82-1.289,13.654,13.654,0,0,0,.938-1.523,2.494,2.494,0,0,0,.293-1.113v-.234a1.326,1.326,0,0,0-.557.264.787.787,0,0,1-.439.205.7.7,0,0,1-.557-.176,2.109,2.109,0,0,1-.293-.732,1.213,1.213,0,0,0-.557-.791,12.238,12.238,0,0,0-2.988-.7,17.314,17.314,0,0,1-4.189-.967,2.168,2.168,0,0,1-1.494-2.139,2.258,2.258,0,0,0-.205-.967,6,6,0,0,0-.439-.791,1.981,1.981,0,0,1-.527-1.23,1.416,1.416,0,0,1,.557-1.26,5.532,5.532,0,0,1,1.67-.674,3.09,3.09,0,0,0,1.465-.586,6.038,6.038,0,0,0,1.025-1.7q.557-1.23.674-1.465A27.918,27.918,0,0,1,109.8-24.99a7.4,7.4,0,0,1,3.281-2.842,10.308,10.308,0,0,1,3.281-.527,4.319,4.319,0,0,1,3.105.967,4.392,4.392,0,0,1,1.26,2.461A22.8,22.8,0,0,1,121-21.094a6.243,6.243,0,0,0,.234,2.344q.234.293,1.406.293a6.4,6.4,0,0,1,2.314.439,1.632,1.632,0,0,1,.85,1.67,1.552,1.552,0,0,1-.879,1.465,10.008,10.008,0,0,1-2.4.82,3.937,3.937,0,0,0-1.7.645,6.5,6.5,0,0,0-.439,1.494,9.294,9.294,0,0,0-.264,1.67q0,.879,1.084,1.26a6.586,6.586,0,0,0,2.2.381q.645-.879.762-1,1.934-2.52,3.076-4.072a4.967,4.967,0,0,0,1.143-2.139A9.33,9.33,0,0,0,127.5-19.1q-.527-1.348-.762-2.2A6.691,6.691,0,0,1,126.5-23.086ZM118.066-19.8q0-5.742-1.934-6.094a12.59,12.59,0,0,0-1.465-.117,3.3,3.3,0,0,0-1,.117q-.586.234-2.666,3.75a19.725,19.725,0,0,0-2.2,4.336,7.737,7.737,0,0,0,2.285.293q1.113,0,1.113-.645a3.443,3.443,0,0,0-.117-.82l-.176-.7a4.525,4.525,0,0,1-.352-1.465,2.063,2.063,0,0,1,.527-1.377,1.636,1.636,0,0,1,1.289-.615q1,0,1.26.586a6.121,6.121,0,0,1,.381,1.816,5.5,5.5,0,0,0,.439,1.875,1.386,1.386,0,0,0,1.377.645,1.088,1.088,0,0,0,1-.381A2.365,2.365,0,0,0,118.066-19.8ZM133.3-23.613q0-.352-.586-.352a2.146,2.146,0,0,0-1.348.586,2.031,2.031,0,0,1-1.113.586,1.8,1.8,0,0,1-.234-.029q-.176-.029-.176.205a3.851,3.851,0,0,0,.5,1.582,9.036,9.036,0,0,0,.967,1.582q.293-.059,1.143-1.9A8.928,8.928,0,0,0,133.3-23.613Zm-21.211,11.6q0-1.406-.732-1.787a5.275,5.275,0,0,0-2.314-.381,3.037,3.037,0,0,0-1.934.645,2.056,2.056,0,0,0-.82,1.7q0,.469,1.113.615t1.172.146l3.047.41Q112.09-10.605,112.09-12.012Zm4.8-1.23q0-.469-.762-.469a.7.7,0,0,0-.557.234.858.858,0,0,0-.205.586,10.261,10.261,0,0,0,.176,1.758q.176,1,.586,1,.293,0,.527-1.26A11.331,11.331,0,0,0,116.895-13.242ZM188.438,3.75a8.759,8.759,0,0,1-2.842-.469q-1.377-.469-3.428-1.406Q179.941.937,178.652.5a8.3,8.3,0,0,0-2.7-.439q-.293,0-.439.645a3.867,3.867,0,0,1-.381,1.055,1.052,1.052,0,0,1-1,.41,1.278,1.278,0,0,1-1.055-.527,1.863,1.863,0,0,1-.41-1.172l.059-.82q-.234-.527-2.168-.967a14.42,14.42,0,0,0-2.871-.439.8.8,0,0,0-.762.439A5.027,5.027,0,0,0,166.523,0a5.715,5.715,0,0,1-.586,1.758,1.441,1.441,0,0,1-1.348.586,1.182,1.182,0,0,1-1.23-.762,5.445,5.445,0,0,1-.293-1.934,21.2,21.2,0,0,1,.791-4.541,29.615,29.615,0,0,1,1.992-5.625q1.2-2.49,2.49-2.49l.41.059a.572.572,0,0,1,.117.41,3.169,3.169,0,0,1-.264,1.084q-.264.674-.381.908a14.622,14.622,0,0,0-.615,2.373,20.02,20.02,0,0,0-.264,2.344q-.059,1.143-.117,1.611,4.336,0,4.8-.352A1.445,1.445,0,0,0,172.5-5.8q0-3.809.293-8.5a9.126,9.126,0,0,1,.059-1.113q.059-.469.117-.82a16.5,16.5,0,0,0,.234-2.285,2.207,2.207,0,0,0-.879-.176l-.937.059q-1.172,0-1.172-.527,0-.176.5-.5a11.282,11.282,0,0,1,1.084-.615q1.465-.762,1.465-1.055a.5.5,0,0,0-.117-.322.318.318,0,0,0-.234-.146,2.257,2.257,0,0,0-1.055.469,2.254,2.254,0,0,1-1.113.469q-.176,0-.322-.352a1.594,1.594,0,0,1-.146-.586,3.2,3.2,0,0,1,.938-2.021,14.974,14.974,0,0,1,2.051-1.963q0-.352-.41-.352a1.382,1.382,0,0,0-.586.176,4.518,4.518,0,0,1-.527.234,3.329,3.329,0,0,1-1.465.527q-.293,0-.5-.5a2.309,2.309,0,0,1-.205-.85,1.947,1.947,0,0,1,.439-1.289A8.456,8.456,0,0,1,171.27-29a8.114,8.114,0,0,0,1.23-1.143,1.916,1.916,0,0,0,.41-1.26q0-1.23-.586-1.23a.832.832,0,0,0-.674.322,3.5,3.5,0,0,0-.5.908,4.53,4.53,0,0,1-.439.879.7.7,0,0,1-.615.293,1.142,1.142,0,0,1-1.055-.85,4.347,4.347,0,0,1-.352-1.67,2.578,2.578,0,0,1,.557-1.787,7.71,7.71,0,0,1,1.729-1.318,5.664,5.664,0,0,0,2.109-1.875,16.8,16.8,0,0,1,.791-1.523,1.01,1.01,0,0,1,.908-.527.716.716,0,0,1,.527.176q0,.234.059.967a2.059,2.059,0,0,0,.234.967,1.548,1.548,0,0,0,.791.352,4.51,4.51,0,0,1,1.084.41.81.81,0,0,1,.41.762,1.5,1.5,0,0,1-.264.967,3.106,3.106,0,0,1-.908.674,3.342,3.342,0,0,0-1.055.762,2.178,2.178,0,0,0-.352,1.406,1.918,1.918,0,0,0,.234,1.055q.176.234,1.172.234a5.093,5.093,0,0,1,2.988.82q1.172.82,1.172,3.75a18.215,18.215,0,0,1-.586,3.9q-.586,2.49-1.348,2.9a2.609,2.609,0,0,1-1.172.234,2.2,2.2,0,0,0-1.172.234,3.491,3.491,0,0,0-.059.762,32.918,32.918,0,0,0,.352,5.273l.234.117a3.589,3.589,0,0,0,.938-.352l.82-.41a8.71,8.71,0,0,1,4.277-1.406,1.333,1.333,0,0,1,1.084.557,1.9,1.9,0,0,1,.439,1.2,1.669,1.669,0,0,1-1.025,1.406,28.6,28.6,0,0,1-3.193,1.465q-1.641.645-2.4,1a3.455,3.455,0,0,0-1.172.82,4.418,4.418,0,0,0-.381,1.758q-.146,1.465-.146,2.344a.527.527,0,0,0,.176.469,1.379,1.379,0,0,0,.527.176Q190.078-1.289,190.078,2.7,190.078,3.75,188.438,3.75ZM155.391-1.406a1.48,1.48,0,0,1-1.26-.586,2.373,2.373,0,0,1-.439-1.465,2.011,2.011,0,0,1,.117-.82,1.326,1.326,0,0,1,.469-.469,1.432,1.432,0,0,0,.527-.645,10.364,10.364,0,0,0,.176-2.08q.059-1.787.059-2.783,0-1.289-.234-1.289a4.6,4.6,0,0,0-1.406.469,5.8,5.8,0,0,1-1.992.645q-1.289,0-1.289-1.7a2.925,2.925,0,0,1,1.23-2.021q1.23-1.084,3.281-2.549a3.681,3.681,0,0,0,.615-.381q.264-.205.439-.322a15.7,15.7,0,0,1,.117-1.582q.117-1.523.117-2.344a2.666,2.666,0,0,0-.088-.791,1.1,1.1,0,0,0-.381-.5,4.423,4.423,0,0,0-.82-.059,4.515,4.515,0,0,0-.791.059q-.322.059-.557.117a5.125,5.125,0,0,1-1.348.234q-2.812,0-2.812-1.406a1.391,1.391,0,0,1,.908-1.348,13.03,13.03,0,0,1,2.725-.762q.234-.059.938-.205a8.116,8.116,0,0,0,1.172-.322,1.963,1.963,0,0,0,.7-.41,1.611,1.611,0,0,0,.352-.82,5.847,5.847,0,0,0,.117-.7,5.855,5.855,0,0,1,.5-1.787,1.231,1.231,0,0,1,1.2-.615q.7,0,.7.527a2.433,2.433,0,0,1-.234.85,2.433,2.433,0,0,0-.234.85.955.955,0,0,0,.234.7,13.894,13.894,0,0,0,2.168-.176q1.406-.117,2.109-.117.234,0,.469.41a1.442,1.442,0,0,1,.234.645,1.8,1.8,0,0,1-.937,1.465,16.034,16.034,0,0,1-2.52,1.348q-.234.117-.791.381t-.615.439a2.5,2.5,0,0,0-.117.879,5.111,5.111,0,0,0,.352,2.432,1.581,1.581,0,0,0,1.113.615,2.615,2.615,0,0,1,.879.234,1.617,1.617,0,0,1,.645.762,1.56,1.56,0,0,1,.176.7,1.9,1.9,0,0,1-.439,1.2,11.377,11.377,0,0,1-.879,1l-.615.615q0,.41-.029,4.072a19.833,19.833,0,0,1-1.055,6.533Q157.324-1.406,155.391-1.406Zm20.684-25.137a5.414,5.414,0,0,0,1.26-.205.677.677,0,0,0,.439-.732q0-.352-.586-.352a1.553,1.553,0,0,0-.762.234,1.137,1.137,0,0,0-.527.527Zm.586,3.809a2.066,2.066,0,0,0,.645-.146q.41-.146.41-.322a.284.284,0,0,0-.205-.264.973.973,0,0,0-.381-.088,1.928,1.928,0,0,0-.586.117q-.352.117-.352.293a.361.361,0,0,0,.146.293A.5.5,0,0,0,176.66-22.734ZM219.2-36.094a2.08,2.08,0,0,1,.176-.967q.176-.322.762-.322.527,0,.879.82a3.69,3.69,0,0,1,.352,1.406,2.3,2.3,0,0,1-.059.5,2.3,2.3,0,0,0-.059.5.959.959,0,0,0,.293.7,3.717,3.717,0,0,0,1.992.293,15.24,15.24,0,0,1,3.6.527,1.7,1.7,0,0,1,1.318,1.758q0,.762-1.113,1.084a20.259,20.259,0,0,1-3.105.557q-.293.059-1.23.205a4.969,4.969,0,0,0-1.289.322,4.233,4.233,0,0,0-.527,1.992q-.293,1.465-.469,2.256a2.394,2.394,0,0,1-.586,1.2,2.781,2.781,0,0,1-.645.059l-.762-.059a35.946,35.946,0,0,0-.293-4.98,4.112,4.112,0,0,0-1.172-.117,8.746,8.746,0,0,0-2.93.234q-.117.059-.176,1.2a6.578,6.578,0,0,1-.352,1.934,1.139,1.139,0,0,1-1.172.791,1.435,1.435,0,0,1-1.055-.645,1.981,1.981,0,0,1-.527-1.23v-.732a3.873,3.873,0,0,0-.117-1,1.594,1.594,0,0,0-.41-.732,2.168,2.168,0,0,0-1.025-.41,16.014,16.014,0,0,0-1.846-.176,12,12,0,0,1-2.549-.381,1.1,1.1,0,0,1-.85-1.143,1.078,1.078,0,0,1,.527-.937,2.067,2.067,0,0,1,1.172-.352q1.289,0,1.934.059l1.875.059a5.31,5.31,0,0,0,.938-.059.849.849,0,0,0,.527-.469,6.048,6.048,0,0,0,.41-.879,8.266,8.266,0,0,1,1.055-1.816,1.924,1.924,0,0,1,1.582-.645,1.327,1.327,0,0,1,.732.146q.205.146.205.674a2,2,0,0,1-.381,1.143,1.767,1.767,0,0,0-.381.908.557.557,0,0,0,.234.469,21.429,21.429,0,0,0,2.725-.117,1.872,1.872,0,0,0,1.289-.82,4.316,4.316,0,0,0,.5-2.4ZM195.586-17.578l-.059-2.051q0-4.687,2.109-4.687a1.015,1.015,0,0,1,.7.264,5.163,5.163,0,0,1,.645.732,5.126,5.126,0,0,0,.557.586,1,1,0,0,0,.674.293,11.891,11.891,0,0,1,2.344.176,1.922,1.922,0,0,1,1.26.85,4.02,4.02,0,0,1,.439,2.139,7.281,7.281,0,0,1-.586,2.461,8.2,8.2,0,0,0-.586,2.344.983.983,0,0,0,.322.586,1.05,1.05,0,0,1,.322.7q0,.7-1.318,1.846a19.2,19.2,0,0,1-2.93,2.08,5.642,5.642,0,0,1-2.314.938q-1.641,0-1.641-4.395Zm6.211-1.113a.829.829,0,0,0-.937-.937q-1.816,0-1.816,2.227l-.059,4.629q0,.762.176.762.41,0,1.523-2.959A15.653,15.653,0,0,0,201.8-18.691Zm9.258,7.617q0-1.172-.059-1.816l-.059-1.758a7.227,7.227,0,0,1,.352-1.9,8.027,8.027,0,0,1,.938-2.109,1.612,1.612,0,0,1,1.289-.908,2.007,2.007,0,0,1,.967.322,1.936,1.936,0,0,0,.85.322,10.264,10.264,0,0,0,2.227-.293,14.2,14.2,0,0,1,2.168-.234q3.691,0,5.039,1.553t1.348,5.3a21.713,21.713,0,0,1-.469,3.691,16.779,16.779,0,0,0-.527,3.75.593.593,0,0,0,.439.615,5.887,5.887,0,0,0,1.377.205,5.922,5.922,0,0,1,1.875.322,1.149,1.149,0,0,1,.645,1.2,1.009,1.009,0,0,1-.615,1.025,4.88,4.88,0,0,1-1.611.322,12.6,12.6,0,0,0-2.578.41q-1.348.352-1.641.41-1.172.293-2.4.557a11.194,11.194,0,0,1-2.344.264q-.762,0-2.168-.117-1.523-.117-2.227-.117a2.359,2.359,0,0,0-1.436.41,1.871,1.871,0,0,1-.732.41q-.82,0-.82-1.582,0-1.641.117-5.156Zm11.777-3.047a1.508,1.508,0,0,0-.586-1.113,1.766,1.766,0,0,0-1.172-.527q-.469,0-.469,1.289,0,1.523,1.172,1.523a.945.945,0,0,0,.732-.381A1.214,1.214,0,0,0,222.832-14.121Zm-8.379,3.457a2.424,2.424,0,0,0,2.168-1.055,4.543,4.543,0,0,0,.7-2.578q0-1-.469-1a2.07,2.07,0,0,0-2.109,1.025,7.169,7.169,0,0,0-.469,2.9A1.018,1.018,0,0,0,214.453-10.664Zm5.684,6.973a2.132,2.132,0,0,0,2.285-1.641,14.668,14.668,0,0,0,.469-3.984,1.73,1.73,0,0,0-.088-.469q-.088-.293-.264-.293-1.582,0-2.109,1.875a14.654,14.654,0,0,0-.527,3.984,1.524,1.524,0,0,0,.059.469Zm-5.977-3.4q-.41.176-.674,1.377a9.559,9.559,0,0,0-.264,1.963q0,.41.176.527a1.1,1.1,0,0,0,.586.117,9.5,9.5,0,0,0,2.4-.264,1.2,1.2,0,0,0,1-1.26,3.921,3.921,0,0,0-.293-1.523,9.378,9.378,0,0,0-.937-1.641Zm45.762-29a2.08,2.08,0,0,1,.176-.967q.176-.322.762-.322.527,0,.879.82a3.69,3.69,0,0,1,.352,1.406,2.3,2.3,0,0,1-.059.5,2.3,2.3,0,0,0-.059.5.959.959,0,0,0,.293.7,3.717,3.717,0,0,0,1.992.293,15.24,15.24,0,0,1,3.6.527,1.7,1.7,0,0,1,1.318,1.758q0,.762-1.113,1.084a20.259,20.259,0,0,1-3.105.557q-.293.059-1.23.205a4.969,4.969,0,0,0-1.289.322,4.233,4.233,0,0,0-.527,1.992q-.293,1.465-.469,2.256a2.394,2.394,0,0,1-.586,1.2,2.781,2.781,0,0,1-.645.059l-.762-.059a35.946,35.946,0,0,0-.293-4.98,4.112,4.112,0,0,0-1.172-.117,8.746,8.746,0,0,0-2.93.234q-.117.059-.176,1.2a6.578,6.578,0,0,1-.352,1.934,1.139,1.139,0,0,1-1.172.791,1.435,1.435,0,0,1-1.055-.645,1.981,1.981,0,0,1-.527-1.23v-.732a3.873,3.873,0,0,0-.117-1,1.594,1.594,0,0,0-.41-.732,2.168,2.168,0,0,0-1.025-.41,16.014,16.014,0,0,0-1.846-.176,12,12,0,0,1-2.549-.381,1.1,1.1,0,0,1-.85-1.143,1.078,1.078,0,0,1,.527-.937,2.067,2.067,0,0,1,1.172-.352q1.289,0,1.934.059l1.875.059a5.31,5.31,0,0,0,.938-.059.849.849,0,0,0,.527-.469,6.048,6.048,0,0,0,.41-.879,8.266,8.266,0,0,1,1.055-1.816A1.924,1.924,0,0,1,255-35.684a1.327,1.327,0,0,1,.732.146q.205.146.205.674a2,2,0,0,1-.381,1.143,1.767,1.767,0,0,0-.381.908.557.557,0,0,0,.234.469,21.429,21.429,0,0,0,2.725-.117,1.872,1.872,0,0,0,1.289-.82,4.316,4.316,0,0,0,.5-2.4ZM236.309-17.578l-.059-2.051q0-4.687,2.109-4.687a1.015,1.015,0,0,1,.7.264,5.163,5.163,0,0,1,.645.732,5.126,5.126,0,0,0,.557.586,1,1,0,0,0,.674.293,11.891,11.891,0,0,1,2.344.176,1.922,1.922,0,0,1,1.26.85,4.02,4.02,0,0,1,.439,2.139,7.281,7.281,0,0,1-.586,2.461,8.2,8.2,0,0,0-.586,2.344.983.983,0,0,0,.322.586,1.05,1.05,0,0,1,.322.7q0,.7-1.318,1.846a19.2,19.2,0,0,1-2.93,2.08,5.642,5.642,0,0,1-2.314.938q-1.641,0-1.641-4.395Zm6.211-1.113a.829.829,0,0,0-.937-.937q-1.816,0-1.816,2.227l-.059,4.629q0,.762.176.762.41,0,1.523-2.959A15.653,15.653,0,0,0,242.52-18.691Zm9.258,7.617q0-1.172-.059-1.816l-.059-1.758a7.227,7.227,0,0,1,.352-1.9,8.027,8.027,0,0,1,.938-2.109,1.612,1.612,0,0,1,1.289-.908,2.007,2.007,0,0,1,.967.322,1.936,1.936,0,0,0,.85.322,10.264,10.264,0,0,0,2.227-.293,14.2,14.2,0,0,1,2.168-.234q3.691,0,5.039,1.553t1.348,5.3a21.713,21.713,0,0,1-.469,3.691,16.779,16.779,0,0,0-.527,3.75.593.593,0,0,0,.439.615,5.887,5.887,0,0,0,1.377.205,5.922,5.922,0,0,1,1.875.322,1.149,1.149,0,0,1,.645,1.2,1.009,1.009,0,0,1-.615,1.025,4.88,4.88,0,0,1-1.611.322,12.6,12.6,0,0,0-2.578.41q-1.348.352-1.641.41-1.172.293-2.4.557a11.194,11.194,0,0,1-2.344.264q-.762,0-2.168-.117-1.523-.117-2.227-.117a2.359,2.359,0,0,0-1.436.41,1.871,1.871,0,0,1-.732.41q-.82,0-.82-1.582,0-1.641.117-5.156Zm11.777-3.047a1.508,1.508,0,0,0-.586-1.113,1.766,1.766,0,0,0-1.172-.527q-.469,0-.469,1.289,0,1.523,1.172,1.523a.945.945,0,0,0,.732-.381A1.214,1.214,0,0,0,263.555-14.121Zm-8.379,3.457a2.424,2.424,0,0,0,2.168-1.055,4.543,4.543,0,0,0,.7-2.578q0-1-.469-1a2.07,2.07,0,0,0-2.109,1.025,7.169,7.169,0,0,0-.469,2.9A1.018,1.018,0,0,0,255.176-10.664Zm5.684,6.973a2.132,2.132,0,0,0,2.285-1.641,14.668,14.668,0,0,0,.469-3.984,1.73,1.73,0,0,0-.088-.469q-.088-.293-.264-.293-1.582,0-2.109,1.875a14.654,14.654,0,0,0-.527,3.984,1.524,1.524,0,0,0,.059.469Zm-5.977-3.4q-.41.176-.674,1.377a9.559,9.559,0,0,0-.264,1.963q0,.41.176.527a1.1,1.1,0,0,0,.586.117,9.5,9.5,0,0,0,2.4-.264,1.2,1.2,0,0,0,1-1.26,3.921,3.921,0,0,0-.293-1.523,9.378,9.378,0,0,0-.937-1.641Zm52.266-20.977q.117-.41.293-1.436a7.025,7.025,0,0,1,.5-1.729,1,1,0,0,1,.908-.7.909.909,0,0,1,.645.176,5.711,5.711,0,0,1,.146,1.113,3.059,3.059,0,0,0,.205,1.055l.059-.059q.41-.117,1.172-.322a5.109,5.109,0,0,1,1.289-.205q1.465,0,1.465,1.113a1.87,1.87,0,0,1-.557,1.377,12.111,12.111,0,0,1-1.67,1.318,10.248,10.248,0,0,0-1.113.762.887.887,0,0,0-.352.7,6.594,6.594,0,0,0,.527,2.344,4.24,4.24,0,0,0,.176.615,3.791,3.791,0,0,1,.176.674,46.281,46.281,0,0,1,.908,6.826q.205,3.486.205,8.291a11.922,11.922,0,0,1-.967,4.688A3.225,3.225,0,0,1,308.086.82a2.439,2.439,0,0,1-1.729-.879,2.566,2.566,0,0,1-.85-1.758,1.139,1.139,0,0,1,.234-.586q.176-.059,1.406-.293a1.627,1.627,0,0,0,.732-.264,1.159,1.159,0,0,0,.146-.732L307.969-5.8q0-8.789-.352-9.082a6.225,6.225,0,0,0-2.344-.527,13.54,13.54,0,0,1-3.193-.674,1.572,1.572,0,0,1-1.143-1.553.619.619,0,0,1,.293-.615,1.868,1.868,0,0,1,.82-.146q.352,0,1.172.059t2.109.059q1.992,0,2.109-.293a2.08,2.08,0,0,0,.117-.762v-.586q0-3.867-1-3.867a2,2,0,0,0-.879.352,3.714,3.714,0,0,1-1.494.293q-1.084.059-1.846.059a12.216,12.216,0,0,1-2.549-.205,1.168,1.168,0,0,1-.908-1.318,1.871,1.871,0,0,1,.381-1.113,1.15,1.15,0,0,1,.967-.527,1.547,1.547,0,0,1,.527.146,1.547,1.547,0,0,0,.527.146,10.377,10.377,0,0,0,3.135-.7A7.571,7.571,0,0,0,307.148-28.066Zm-29.414,4.043q0-1,1.318-1.494a21.058,21.058,0,0,1,3.779-.908q1.523-.234,2.373-.439a2.137,2.137,0,0,0,1.143-.557,6.207,6.207,0,0,0,.527-1.406,8.054,8.054,0,0,1,.469-1.494.751.751,0,0,1,.7-.5q.762,0,.762,1.055l-.059,1.113q0,.469.322.586a3,3,0,0,0,.967.117,2.89,2.89,0,0,1,1.2.205.9.9,0,0,1,.439.908,1.14,1.14,0,0,1-.439.938,5.911,5.911,0,0,1-1.2.7,3.754,3.754,0,0,0-.732.41.628.628,0,0,0-.322.469,10.253,10.253,0,0,0,.234,2.109q.234,1.113.293,1.406.176.645.41,1.934a1.249,1.249,0,0,0,.645.117,9.543,9.543,0,0,0,1.055-.059,9.543,9.543,0,0,1,1.055-.059,2.649,2.649,0,0,1,1.436.322,1.256,1.256,0,0,1,.5,1.143,1.688,1.688,0,0,1-.85,1.729,6.759,6.759,0,0,1-2.432.439l-1.23.117-.059,1.934a61.243,61.243,0,0,1-.645,8.936q-.586,3.6-2.637,3.6-1,0-1.289-2.109a31.056,31.056,0,0,1-.293-4.277V-9.785q0-3.926-.234-4.16a2.195,2.195,0,0,0-.645.732,3.885,3.885,0,0,1-.41.615,7.687,7.687,0,0,1-.879,1.2,1.252,1.252,0,0,1-.937.439,1.29,1.29,0,0,1-.937-.41,1.29,1.29,0,0,1-.41-.937,7.747,7.747,0,0,1,1.025-3.4q1.025-1.992,2.725-4.687.176-.293.762-1.289a4.092,4.092,0,0,0,.586-1.23.63.63,0,0,0-.117-.352.394.394,0,0,0-.352-.176,1.3,1.3,0,0,0-.41.059,2.274,2.274,0,0,0-.293.117,18.883,18.883,0,0,1-5.039.527A2.975,2.975,0,0,1,278.232-23,1.051,1.051,0,0,1,277.734-24.023Zm102.656,5.215a3.178,3.178,0,0,1-1.025,2.637,6.1,6.1,0,0,1-2.9,1.113,48.983,48.983,0,0,1-5.156.557q-2.637.146-6.152.146h-4.512a29.5,29.5,0,0,1-6.475-.7q-3.135-.7-3.135-2.871a1.8,1.8,0,0,1,.762-1.348q.645-.586,5.889-1.143t11.4-.937q6.152-.381,8.2-.381a3.66,3.66,0,0,1,2.4.615A3,3,0,0,1,380.391-18.809Zm25.371-11.25a19.146,19.146,0,0,1,.322-2.549,8.443,8.443,0,0,1,.557-2.256,23.832,23.832,0,0,1,4.131-1.465q3.955-1.23,4.658-1.348a29.164,29.164,0,0,1,3.223-.176,2.3,2.3,0,0,1,1.846.879,3.106,3.106,0,0,1,.732,2.051,7.14,7.14,0,0,1-.732,2.813q-.732,1.641-1.729,1.641-1.055,0-1.055-1.289l.059-.762q0-1-.645-1a12.569,12.569,0,0,0-1.729.146,4.408,4.408,0,0,0-1.436.381,4.484,4.484,0,0,0-.176,1.465,4.989,4.989,0,0,0,.176,1.582,14.4,14.4,0,0,0,1.641.059,19.772,19.772,0,0,1,4.893.586,2.26,2.26,0,0,1,1.846,2.344q0,1.055-1.289,1.055a10.284,10.284,0,0,1-3.457-.879q-.234-.059-1.406-.469a6.9,6.9,0,0,0-2.285-.41,1.147,1.147,0,0,0-1.025.732,12.381,12.381,0,0,0-.791,2.139,15.012,15.012,0,0,1-1.26,3.076,2.118,2.118,0,0,1-1.963,1.025q-1.23,0-1.23-.937a8.161,8.161,0,0,1,.645-2.842q.645-1.67,1.875-4.189.527-1.113.967-2.08a4.081,4.081,0,0,0,.439-1.318l-.41-.234a4.193,4.193,0,0,0-1.055.176,2.04,2.04,0,0,0-.879.41,4.261,4.261,0,0,0-.469,1.7,10.144,10.144,0,0,1-.469,2.139,1.031,1.031,0,0,1-1,.791q-.7,0-1.113-1.055A5.379,5.379,0,0,1,405.762-30.059Zm-15.645,6.387a1.48,1.48,0,0,1,.586-1.26,8.233,8.233,0,0,1,1.7-.908,17.459,17.459,0,0,0,1.846-.937,2.282,2.282,0,0,0,.967-1.23,15.826,15.826,0,0,1,1-2.227,1.394,1.394,0,0,1,1.23-.82,1.108,1.108,0,0,1,.762.322.972.972,0,0,1,.352.732.586.586,0,0,1-.234.439.552.552,0,0,0-.234.381q0,.234.469.234.176,0,1-.029a2.11,2.11,0,0,1,1.289.293,1.156,1.156,0,0,1,.469,1.025q0,1.875-3.105,3.105,0,.762.059,1.465,0,4.629.293,4.8l.293.117a2.294,2.294,0,0,0,.762-.176,2.245,2.245,0,0,1,.7-.176,1.183,1.183,0,0,1,1.055.527,2.166,2.166,0,0,1,.352,1.23,1.443,1.443,0,0,1-.527,1.113,8.54,8.54,0,0,1-1.465,1,5.127,5.127,0,0,0-1.113.762q-.117,3.281-.117,4.922v1.992a15.428,15.428,0,0,1-.381,3.691A5.041,5.041,0,0,1,396.563-.7a2.478,2.478,0,0,1-1.582.7,1.529,1.529,0,0,1-1.289-.791,2.8,2.8,0,0,1-.527-1.553,1.912,1.912,0,0,1,.645-1.26,3.384,3.384,0,0,0,.762-1.025,12.6,12.6,0,0,0,.469-2.49,27,27,0,0,0,.176-2.9,5.954,5.954,0,0,0-.293-1.992l-.234-.059a2.166,2.166,0,0,0-1.025.264,4.944,4.944,0,0,0-.908.615,6.939,6.939,0,0,1-1.025.7,2.022,2.022,0,0,1-.967.234,2.174,2.174,0,0,1-1.406-.527,1.557,1.557,0,0,1-.645-1.23,2.044,2.044,0,0,1,1-1.7,17.558,17.558,0,0,1,2.813-1.523,22.244,22.244,0,0,0,2.109-1.113,1.145,1.145,0,0,0,.645-.937,32.669,32.669,0,0,0-.293-4.687,4.01,4.01,0,0,0-.117-.762q-.117-.527-.234-.527a2,2,0,0,0-.674.176,5.726,5.726,0,0,1-.674.234,5.3,5.3,0,0,1-1.934.586,1.2,1.2,0,0,1-.967-.322A1.729,1.729,0,0,1,390.117-23.672Zm16,9.023A1.709,1.709,0,0,1,407.2-16.2a14.191,14.191,0,0,1,2.959-1.025,17.373,17.373,0,0,0,1.787-.586q.557-.234.557-.586a4.588,4.588,0,0,1,.762-2.49,2.284,2.284,0,0,1,1.992-1.2q1.406,0,1.406.7a.573.573,0,0,1-.527.586,3.066,3.066,0,0,0-.879.322.837.837,0,0,0-.352.791q0,.938.82.938a8.676,8.676,0,0,0,2.637-.527A11.332,11.332,0,0,1,421-19.746a2.3,2.3,0,0,1,1.377.5,1.417,1.417,0,0,1,.674,1.143,1.729,1.729,0,0,1-.937,1.7,12.727,12.727,0,0,1-2.93.879,15.734,15.734,0,0,0-2.227.527,3.211,3.211,0,0,0-1.406.879q0,.82.117,2.2a3.89,3.89,0,0,0,.293,1.553,5.759,5.759,0,0,0,1.7.176q1.582.059,2.4.059a22.7,22.7,0,0,1,6.152.645,18.08,18.08,0,0,1,4.453,1.875q2.227,1.289,2.227,2.871a1.356,1.356,0,0,1-.41,1,1.356,1.356,0,0,1-1,.41,6.273,6.273,0,0,1-1.963-.5q-1.318-.5-2.549-1.084a19.518,19.518,0,0,0-1.875-.82,24.427,24.427,0,0,0-8.5-1.465.619.619,0,0,0-.615.293,1.868,1.868,0,0,0-.146.82q0,1.523.059,2.285l.059,2.4q0,6.914-2.4,6.914a1.358,1.358,0,0,1-1.084-.527,1.864,1.864,0,0,1-.439-1.23q0-1.465.117-4.395.117-2.812.117-4.336,0-2.285-.82-2.285-.293,0-.791.791t-1.025,1.787a32.264,32.264,0,0,1-2.051,3.34,2.2,2.2,0,0,1-1.641,1.113.847.847,0,0,1-.791-.586,2.965,2.965,0,0,1-.264-1.23,8.619,8.619,0,0,1,1.465-4.307q1.465-2.432,3.984-6.006a6.981,6.981,0,0,0-1.523-.117,4.93,4.93,0,0,1-2.051-.41Q406.113-13.242,406.113-14.648Zm38.848-24.961a1.316,1.316,0,0,1,.879-1.377,6.548,6.548,0,0,1,2.227-.322,3.971,3.971,0,0,1,1.23.234,6.888,6.888,0,0,0,1.2.264,3.8,3.8,0,0,1,1.377.439,1.144,1.144,0,0,1,.469,1.055,1.465,1.465,0,0,1-1.143,1.523,9.092,9.092,0,0,1-2.666.352L447.6-37.5a1.524,1.524,0,0,0-.469.059,6.656,6.656,0,0,0-.85,1.611,5.317,5.317,0,0,0-.5,1.729q0,.352.176.352a2.479,2.479,0,0,0,.908-.234,6.421,6.421,0,0,1,.791-.293,38.2,38.2,0,0,1,4.98-1.494,26.025,26.025,0,0,1,4.98-.381h.762q1.113,0,1.846,1.553a6.642,6.642,0,0,1,.732,2.783,6.084,6.084,0,0,1-.762,2.725q-.762,1.494-1.875,1.494a.855.855,0,0,1-.85-.41,2.517,2.517,0,0,1-.205-1.113,5.779,5.779,0,0,1,.176-1.406,9.9,9.9,0,0,0,.117-1.348,1.035,1.035,0,0,0-.527-1.025,3.167,3.167,0,0,0-1.406-.264q-6.387,0-8.613,1.055a4.183,4.183,0,0,0-1.875,1.67,20.01,20.01,0,0,0-1.465,3.076,16.019,16.019,0,0,1-1.23,2.432,1.529,1.529,0,0,1-1.289.791,1.309,1.309,0,0,1-.791-.234.813.813,0,0,1-.322-.7q0-1.055,1.758-4.57a13.7,13.7,0,0,0,1.582-3.984,4.246,4.246,0,0,1,1.23-2.227,9.339,9.339,0,0,0,1-1.641l.117-.352a1.648,1.648,0,0,0-.381-.762A1.727,1.727,0,0,1,444.961-39.609ZM442.852-22.5a7.478,7.478,0,0,1,1.406-3.164,27,27,0,0,1,3.105-4.043q1.7-1.816,2.637-1.816a1.816,1.816,0,0,1,1.172.5,1.424,1.424,0,0,1,.586,1.084,5.958,5.958,0,0,1-.615.791q-.439.5-.439.674a.23.23,0,0,0,.176.234.959.959,0,0,0,.234.059,18.6,18.6,0,0,1,2.842,1.377,45.616,45.616,0,0,1,3.984,2.432q1.787,1.23,1.787,1.7a1.075,1.075,0,0,1-.322.791,1.009,1.009,0,0,1-.732.322q-.645,0-5.273-2.988a21.266,21.266,0,0,0-3.4-1.992,1.064,1.064,0,0,0-.85.527,9.207,9.207,0,0,0-.85,1.582,10.905,10.905,0,0,1-1.553,2.549,2.561,2.561,0,0,1-2.021.908,2.1,2.1,0,0,1-1.289-.439A1.313,1.313,0,0,1,442.852-22.5Zm-2.4,13.242a1.267,1.267,0,0,1,.791-1.084,12.976,12.976,0,0,1,2.256-.908,8.98,8.98,0,0,0,1.7-.645A2.5,2.5,0,0,0,446.1-13.3a12.91,12.91,0,0,0,.381-2.4,11.847,11.847,0,0,1,.381-2.08.756.756,0,0,1,.732-.615q1.523,0,1.523,2.168a4.111,4.111,0,0,1-.059.557,6.554,6.554,0,0,0-.059.967q0,1.23.586,1.23a17.569,17.569,0,0,0,2.754-.41,11.73,11.73,0,0,1,2.754-.41,1.355,1.355,0,0,1,1.289.615,3.37,3.37,0,0,1,.352,1.67,6.44,6.44,0,0,1-.322,1.992q-.322,1-.908,2.52a9.717,9.717,0,0,0-1.055,3.457q0,1.289,1.992,2.285a20.306,20.306,0,0,0,4.541,1.582,18.914,18.914,0,0,0,3.9.586A3.133,3.133,0,0,0,467.461-1a9.825,9.825,0,0,0,1.582-3.311,12.982,12.982,0,0,0,.527-3.428,4.476,4.476,0,0,1,.5-2.08,1.6,1.6,0,0,1,1.494-.967A1.687,1.687,0,0,1,473.2-9.463a8.423,8.423,0,0,1,.469,2.842,16.318,16.318,0,0,1-.85,5.068,10.86,10.86,0,0,1-2.637,4.395,5.87,5.87,0,0,1-4.307,1.787,29.592,29.592,0,0,1-5.8-.908,21.779,21.779,0,0,1-5.391-1.729A9.726,9.726,0,0,1,451.7-.527a5.5,5.5,0,0,1-1.055-3.4,5.783,5.783,0,0,1,.41-2.109q.41-1.055.469-1.289A9.332,9.332,0,0,0,452.4-10.2q-.41.117-1.494.439a9,9,0,0,0-1.9.791,3.13,3.13,0,0,0-1.172,1.055,23.242,23.242,0,0,0-1.406,3.223,57.164,57.164,0,0,1-3.105,6.533q-1.406,2.432-3.047,2.432a1.555,1.555,0,0,1-1-.381,1.139,1.139,0,0,1-.469-.908q0-.879,1.787-4.365t3.252-6.064l-.176-.41a8.062,8.062,0,0,1-2.168-.293Q440.449-8.437,440.449-9.258Zm46.641-32.52a5.416,5.416,0,0,1,.41-2.021q.41-1.025,1.23-1.025a1.737,1.737,0,0,1,1.436.938,3.318,3.318,0,0,1,.615,1.816,6.07,6.07,0,0,1-.059.908,4.239,4.239,0,0,0-.059.615.709.709,0,0,0,.352.7,3.885,3.885,0,0,0,1.465.176q.352,0,1.143-.059t2.021-.059q3.4,0,3.4,1a.949.949,0,0,1-.322.82,3.94,3.94,0,0,1-1.025.469,2.739,2.739,0,0,0-1.172.527,5.276,5.276,0,0,0-.645,1.641,8.842,8.842,0,0,0-.41,1.816q0,.352.7.352a8.124,8.124,0,0,0,1.875-.352q.234-.059.791-.176a5,5,0,0,1,1.025-.117q3.34,0,3.34,1.523,0,1.406-2.051,2.08a37.061,37.061,0,0,1-5.039,1.2,20.43,20.43,0,0,0-2.578.7q-2.051.586-2.93.762l-1.992.352a36.569,36.569,0,0,1-6.387.82,6,6,0,0,1-2.256-.352,1.467,1.467,0,0,1-.85-1.523,1.3,1.3,0,0,1,.82-1.26,9.049,9.049,0,0,1,2.344-.615,10.31,10.31,0,0,0,2.344-.557,1.192,1.192,0,0,0,.762-1.2,2.418,2.418,0,0,1,.264-1.025,7.006,7.006,0,0,1,.381-.732A5.111,5.111,0,0,0,486.5-35.1q0-.352-.293-.352a2.681,2.681,0,0,0-1.348.41q-.117.059-.586.234a2.654,2.654,0,0,1-.937.176,1.551,1.551,0,0,1-.879-.234.789.789,0,0,1-.352-.7,1.455,1.455,0,0,1,.674-1.348,7.858,7.858,0,0,1,2.021-.762,8.644,8.644,0,0,0,1.9-.7,1.3,1.3,0,0,0,.615-1.23,7.622,7.622,0,0,0-.117-1.084A7.622,7.622,0,0,1,487.09-41.777Zm4.98,6.387q0-.293-.381-.5a1.545,1.545,0,0,0-.732-.205,1.727,1.727,0,0,0-1.582.879,3.909,3.909,0,0,0-.527,2.051q0,1.172.352,1.172.527,0,1.7-1.436A4.474,4.474,0,0,0,492.07-35.391Zm-7.207,22.91a35.125,35.125,0,0,1,.586-5.039,34.807,34.807,0,0,1,1.611-6.3q1.025-2.783,2.314-2.783a1.73,1.73,0,0,1,.469.088q.293.088.293.264a5.326,5.326,0,0,1-.469,1.758,5.326,5.326,0,0,0-.469,1.758q0,.41.527.41a8.239,8.239,0,0,0,1.7-.234,9.838,9.838,0,0,1,1.7-.234,3.961,3.961,0,0,1,2.93,1.113,4.038,4.038,0,0,1,1.113,2.988,11.926,11.926,0,0,1-.322,2.725,5.6,5.6,0,0,1-1.025,2.256.844.844,0,0,0-.293.586,1.3,1.3,0,0,0,.439.762,1.312,1.312,0,0,1,.439.82q0,.645-.82,1.055a10.609,10.609,0,0,1-1.7.674q-.879.264-1.23.381.059.234.82,3.047a16.013,16.013,0,0,0,1.2,3.662A8.557,8.557,0,0,0,497.4.059a15.3,15.3,0,0,0,9.316,2.93,8.492,8.492,0,0,0,1.875-.176,2.432,2.432,0,0,0,1.289-.762A3.592,3.592,0,0,0,510.5.791q.264-.85.5-1.875t.352-1.436a30.746,30.746,0,0,1,1.465-5.244q.762-1.846,2.109-1.846a1.432,1.432,0,0,1,1.172.5,1.916,1.916,0,0,1,.41,1.26A27.52,27.52,0,0,1,515.1-.469,5.13,5.13,0,0,1,514.8.7a10.4,10.4,0,0,1-2.2,4.6,5.769,5.769,0,0,1-3.252,1.758,35.541,35.541,0,0,1-5.566.322,15.99,15.99,0,0,1-9.9-2.959q-3.926-2.959-3.926-8.818,0-2.109-.352-2.109-.234,0-1,1.318T487.5-3.164q-2.344,4.395-4.336,7.617t-3.34,3.223a3.2,3.2,0,0,1-1.816-.937Q476.895,5.8,476.895,5.1q0-.586,1.641-2.549t4.98-5.771q1.875-2.051,3.457-3.867a8.494,8.494,0,0,0,1.641-2.227,2.267,2.267,0,0,0-.762.381,1.483,1.483,0,0,1-.762.322,1.735,1.735,0,0,1-1-.469,2.772,2.772,0,0,1-1.025-1.348A7.775,7.775,0,0,1,484.863-12.48Zm8.965-5.684q0-2.051-2.4-2.051-1.406,0-1.758.527a3.906,3.906,0,0,0-.352,1.992,7.881,7.881,0,0,0,.117,1.582,6.3,6.3,0,0,0,1.641-.645,4.219,4.219,0,0,1,1.816-.645Q493.828-17.4,493.828-18.164Zm-.41,3.4q0-.234-.293-.234a1.4,1.4,0,0,0-.732.234q-.381.234-.5.293a6.5,6.5,0,0,1-1.025.322,5.784,5.784,0,0,0-1.23.439.754.754,0,0,0-.439.7.567.567,0,0,0,.322.527,1.388,1.388,0,0,0,.674.176,3.774,3.774,0,0,0,2.021-.85Q493.418-14,493.418-14.766Z" transform="translate(753 -195)" fill="#2f454f"/>
    <path id="Path_375" data-name="Path 375" d="M63.375-144.219A6.962,6.962,0,0,1,64.9-148.18a4.221,4.221,0,0,1,3.352-2.133q3.656,0,4.875,2.539a24.552,24.552,0,0,1,1.828,7.211,24.327,24.327,0,0,0,.914,4.672,1.913,1.913,0,0,0,1.93,1.422,14.5,14.5,0,0,0,3.656-.711,14.705,14.705,0,0,1,3.859-.711,6.6,6.6,0,0,1,3.352,1.016,3.009,3.009,0,0,1,1.727,2.641,4.9,4.9,0,0,1-1.727,3.352,31.715,31.715,0,0,1-4.773,3.758,31.65,31.65,0,0,0-4.367,3.25A4,4,0,0,0,78-119.031q0,10.766-2.844,16.859l-1.828,3.656a10.967,10.967,0,0,0-1.422,4.469v.406a27.061,27.061,0,0,0,4.469.813A22.427,22.427,0,0,1,83.484-91.3q2.437,1.117,2.438,4.57a4.553,4.553,0,0,1-2.031,3.758,37.02,37.02,0,0,1-6.5,3.555,42.934,42.934,0,0,0-10.664,6.3q-3.758,3.25-3.758,9.547,0,1.828,1.625,1.828a2.139,2.139,0,0,0,1.828-.812q7.719-4.875,10.156-4.875a3.421,3.421,0,0,1,2.641,1.523,4.774,4.774,0,0,1,1.219,2.945A6.811,6.811,0,0,1,78.1-58.2a48.58,48.58,0,0,1-6.4,5.18,30.576,30.576,0,0,0-4.469,3.453l-.2.813a7.126,7.126,0,0,0,.813,2.031,7.211,7.211,0,0,1,.813,3.25,19.33,19.33,0,0,1-1.219,5.281,11.9,11.9,0,0,0-1.422,5.281,9.65,9.65,0,0,0,.813,3.758,4.438,4.438,0,0,0,2.234,2.539,39.526,39.526,0,0,1,9.953,1.117q4.266,1.117,4.266,4.977Q83.281-13,75.969-13q-1.625,0-3.859-.2a18.269,18.269,0,0,0-3.859,0q-.2,3.859-.2,11.375,0,.813.1,8.836A50.753,50.753,0,0,1,66.32,21.734q-1.93,6.7-5.789,6.7-4.672,0-6.2-8.227A110.163,110.163,0,0,1,52.508,5.383q-.3-6.6-.3-8.023a7.5,7.5,0,0,0-.3-1.93q-.3-1.117-.914-1.117-.406,0-2.031,2.031T46.922-1.016Q42.25,4.875,39,8.328t-5.891,3.453q-1.016,0-2.742-1.727T28.641,7.313q0-.813,5.484-9.344,7.516-12.187,12.086-20.211t4.57-11.477a1.821,1.821,0,0,0-.3-.914q-.3-.508-.508-.508-1.422,0-8.125,4.063-7.516,4.266-13.2,6.8a26.857,26.857,0,0,1-10.969,2.539,3.043,3.043,0,0,1-2.742-1.422,5.878,5.878,0,0,1-.914-3.25q0-2.234.813-2.945a16.56,16.56,0,0,1,3.453-1.93q4.469-1.828,16.352-9.547T49.359-51.594q1.219-1.219,3.25-8.125a23.7,23.7,0,0,1,2.234-6.7,8.4,8.4,0,0,0,1.016-2.641l-.406-.609-5.687,2.438q-9.953,4.063-15.437,6.094a26.91,26.91,0,0,1-8.734,2.031q-2.031,0-2.641-.812a5.4,5.4,0,0,1-.609-3.047q0-2.641,3.758-5.586a134.479,134.479,0,0,1,11.273-7.617q6.7-4.062,6.906-5.078a25.686,25.686,0,0,0-3.859-4.672,13.346,13.346,0,0,1-2.844-3.859,17.086,17.086,0,0,1-.812-6.3,9.364,9.364,0,0,1,.813-3.25,9.314,9.314,0,0,0,.813-2.844l-.2-.812q-.813,0-3.859.1A7.7,7.7,0,0,1,29.555-104a4.624,4.624,0,0,1-1.727-4.062q0-3.047,4.875-5.789a104.165,104.165,0,0,1,14.219-6.2,120.657,120.657,0,0,0,13.711-6.094Q65-128.578,65-131.219a34.954,34.954,0,0,0-.812-6.5A41.071,41.071,0,0,1,63.375-144.219Zm39.406,54.641q0-2.437,6.2-8.836a173.241,173.241,0,0,1,13.914-12.8q7.719-6.4,10.563-7.617a19.656,19.656,0,0,1,8.125-1.828q7.922,0,7.922,3.453a1.836,1.836,0,0,1-1.016,1.625q-1.016.609-5.383,2.742a39.675,39.675,0,0,0-8.023,5.18l-3.656,3.047a123.847,123.847,0,0,0-12.492,11.07q-4.773,4.977-4.773,9.445a54.044,54.044,0,0,0,.711,7.922q.711,4.672,2.133,5.078l6.094-4.469a281.236,281.236,0,0,1,23.867-16.25q10.258-6.094,18.992-6.094,6.094,0,6.094,4.266,0,2.234-2.945,4.469a71.224,71.224,0,0,1-8.023,5.078q-5.484,3.25-6.3,4.266l-.2,2.844q0,7.922.609,15.641.406,10.563.406,15.844v20.109q0,12.8-.2,19.094a112.608,112.608,0,0,1-2.336,16.453,99.1,99.1,0,0,1-5.789,19.4q-3.656,8.633-8.328,8.633-5.688,0-5.687-8.937,0-6.906,2.641-18.281,2.031-10.359,2.234-13.2.406-4.266,1.219-8.531a146.1,146.1,0,0,0,2.234-23.766l.609-9.953.609-7.109q.2-2.031.609-7.719t.406-10.156q0-4.062-.609-4.062-.813,0-13.609,8.43t-13.609,9.445a9.639,9.639,0,0,0-1.422,4.164q-.406,2.742-.609,4.57t-.2,2.438q-.609,8.125-2.234,12.289t-6.906,4.164q-3.25,0-4.57-4.164a27.738,27.738,0,0,1-1.32-8.43,74.747,74.747,0,0,1,.813-10.969q.812-5.484,1.828-10.461t1.422-7.008q.406-1.828,1.523-6.2a32.573,32.573,0,0,0,1.117-8.023,6.127,6.127,0,0,0-1.32-3.148A6.127,6.127,0,0,1,102.781-89.578ZM66.828-114.156a8.586,8.586,0,0,0-4.266,1.727q-2.641,1.727-6.5,4.773l-3.25,2.438q-4.266,2.641-4.266,6.3,0,1.828,2.844,4.672t4.672,2.844q1.219,0,6.3-9.75t5.281-11.984ZM218.563-95.672q-2.641,0-4.977-2.742a8.393,8.393,0,0,1-2.336-5.383q0-3.453,8.328-9.242A118.608,118.608,0,0,1,238.164-123.5q10.258-4.672,13.914-4.672,4.469,0,6.7,1.828t2.234,6.3a6.564,6.564,0,0,1-.3,2.234,5.525,5.525,0,0,1-1.32,1.828q-1.828,2.031-10.867,7.008t-18.281,9.141Q221-95.672,218.563-95.672ZM244.969,16.047q-6.3,0-18.789-3.25a96.68,96.68,0,0,1-22.141-8.531q-9.648-5.281-9.648-11.578a6.212,6.212,0,0,1,2.031-4.469,6.212,6.212,0,0,1,4.469-2.031,27.394,27.394,0,0,1,8.836,1.727q4.977,1.727,12.9,4.977,6.3,2.641,10.461,4.063a22.14,22.14,0,0,0,6.8,1.422,1.757,1.757,0,0,0,1.422-.812q1.016-1.625,1.016-38.8a20.386,20.386,0,0,0-.406-3.758q-.406-2.133-.609-2.945-5.891,0-8.734.2l-8.937.2q-22.141,0-22.141-6.5,0-3.25,5.891-4.773t18.078-3.352q13.2-1.422,15.031-3.25,1.219-1.422,1.219-4.875a13.437,13.437,0,0,0-1.016-5.992q-1.016-1.93-4.672-1.93l-7.719.2q-5.281.406-7.719.406-11.984,0-11.984-5.484,0-2.031,5.383-3.656t14.727-3.656q2.031-.406,4.977-1.117a22.586,22.586,0,0,0,3.758-1.117q2.438-1.219,3.656-5.484a14.149,14.149,0,0,1,2.031-3.859,4,4,0,0,1,3.25-1.219,3.385,3.385,0,0,1,2.336.813,10.22,10.22,0,0,1,1.93,2.641,8.2,8.2,0,0,0,2.844,3.656q1.625,1.016,7.922,1.422a33.649,33.649,0,0,1,9.344,1.32q3.25,1.117,3.25,4.977,0,4.266-2.945,5.688a26.393,26.393,0,0,1-8.227,2.031,26.834,26.834,0,0,0-6.4,1.523,3.341,3.341,0,0,0-2.133,3.352q0,5.281,1.117,7.313t5.789,2.031l8.125-.2q15.641,0,15.641,5.688a4.076,4.076,0,0,1-1.117,2.844,3.371,3.371,0,0,1-2.539,1.219,69.381,69.381,0,0,1-6.906,2.031q-8.734,2.641-13.3,4.469t-4.57,4.266a365.189,365.189,0,0,0,2.438,44.484,22.356,22.356,0,0,1,.2,3.453,13.879,13.879,0,0,1-3.961,10.258A13.879,13.879,0,0,1,244.969,16.047ZM414.781-97.3q.406-1.422,1.016-4.977a24.353,24.353,0,0,1,1.727-5.992q1.117-2.437,3.148-2.437a3.152,3.152,0,0,1,2.234.609,19.8,19.8,0,0,1,.508,3.859,10.6,10.6,0,0,0,.711,3.656l.2-.2q1.422-.406,4.063-1.117a17.713,17.713,0,0,1,4.469-.711q5.078,0,5.078,3.859a6.484,6.484,0,0,1-1.93,4.773,41.987,41.987,0,0,1-5.789,4.57,35.528,35.528,0,0,0-3.859,2.641,3.076,3.076,0,0,0-1.219,2.438,22.859,22.859,0,0,0,1.828,8.125,14.7,14.7,0,0,0,.609,2.133,13.14,13.14,0,0,1,.609,2.336,160.442,160.442,0,0,1,3.148,23.664q.711,12.086.711,28.742A41.329,41.329,0,0,1,428.7-5.078q-3.352,7.922-10.664,7.922-3.047,0-5.992-3.047T409.094-6.3a3.949,3.949,0,0,1,.813-2.031q.609-.2,4.875-1.016a5.641,5.641,0,0,0,2.539-.914,4.018,4.018,0,0,0,.508-2.539l-.2-7.312q0-30.469-1.219-31.484t-8.125-1.828a46.938,46.938,0,0,1-11.07-2.336q-3.961-1.523-3.961-5.383a2.147,2.147,0,0,1,1.016-2.133,6.476,6.476,0,0,1,2.844-.508q1.219,0,4.063.2t7.313.2q6.906,0,7.313-1.016a7.211,7.211,0,0,0,.406-2.641v-2.031q0-13.406-3.453-13.406A6.918,6.918,0,0,0,409.7-81.25a12.877,12.877,0,0,1-5.18,1.016q-3.758.2-6.4.2a42.347,42.347,0,0,1-8.836-.711q-3.148-.711-3.148-4.57a6.486,6.486,0,0,1,1.32-3.859A3.986,3.986,0,0,1,390.813-91a5.362,5.362,0,0,1,1.828.508,5.361,5.361,0,0,0,1.828.508q3.859,0,10.867-2.437T414.781-97.3ZM312.813-83.281q0-3.453,4.57-5.18a73,73,0,0,1,13.1-3.148q5.281-.812,8.227-1.523a7.41,7.41,0,0,0,3.961-1.93,21.517,21.517,0,0,0,1.828-4.875,27.922,27.922,0,0,1,1.625-5.18,2.6,2.6,0,0,1,2.438-1.727q2.641,0,2.641,3.656l-.2,3.859q0,1.625,1.117,2.031a10.407,10.407,0,0,0,3.352.406,10.018,10.018,0,0,1,4.164.711q1.523.711,1.523,3.148a3.951,3.951,0,0,1-1.523,3.25,20.491,20.491,0,0,1-4.164,2.438,13.015,13.015,0,0,0-2.539,1.422,2.179,2.179,0,0,0-1.117,1.625,35.545,35.545,0,0,0,.813,7.313q.812,3.859,1.016,4.875.609,2.234,1.422,6.7A4.33,4.33,0,0,0,357.3-65a33.085,33.085,0,0,0,3.656-.2,33.085,33.085,0,0,1,3.656-.2,9.184,9.184,0,0,1,4.977,1.117q1.727,1.117,1.727,3.961,0,4.672-2.945,5.992a23.432,23.432,0,0,1-8.43,1.523l-4.266.406-.2,6.7a212.308,212.308,0,0,1-2.234,30.977Q351.2-2.234,344.094-2.234q-3.453,0-4.469-7.312a107.659,107.659,0,0,1-1.016-14.828v-9.547q0-13.609-.812-14.422a7.608,7.608,0,0,0-2.234,2.539,13.467,13.467,0,0,1-1.422,2.133,26.651,26.651,0,0,1-3.047,4.164,4.339,4.339,0,0,1-3.25,1.523,4.474,4.474,0,0,1-3.25-1.422,4.474,4.474,0,0,1-1.422-3.25q0-4.875,3.555-11.781t9.445-16.25q.609-1.016,2.641-4.469t2.031-4.266a2.184,2.184,0,0,0-.406-1.219,1.367,1.367,0,0,0-1.219-.609,4.5,4.5,0,0,0-1.422.2,7.883,7.883,0,0,0-1.016.406q-6.3,1.828-17.469,1.828a10.314,10.314,0,0,1-4.773-.914Q312.813-80.641,312.813-83.281Z" transform="translate(989 -307)" fill="#2f454f"/>
    <path id="Path_374" data-name="Path 374" d="M24.43,0A18.8,18.8,0,0,1,13.367-3.227Q8.758-6.453,8.758-12.676a10.349,10.349,0,0,1,2.881-7.26,9.218,9.218,0,0,1,7.029-3.111,20.058,20.058,0,0,1,5.3.691q.922.23,2.189.461a17.758,17.758,0,0,0,3.111.23q6.914,0,13.252-5.3T48.859-39.18a23.849,23.849,0,0,0-4.148-13.713A102.645,102.645,0,0,0,32.5-67.066,101.325,101.325,0,0,1,21.2-79.973a20.487,20.487,0,0,1-3.687-11.984,28.118,28.118,0,0,1,5.07-15.557,41.108,41.108,0,0,1,12.906-12.561,29.614,29.614,0,0,1,15.672-4.84,17.371,17.371,0,0,1,12.1,4.264q4.725,4.264,4.725,11.639a7.529,7.529,0,0,1-3,6.107,10.374,10.374,0,0,1-6.684,2.42,9.434,9.434,0,0,1-4.264-1.5,9.434,9.434,0,0,0-4.264-1.5q-3,0-7.029,4.264t-4.033,7.26a13.387,13.387,0,0,0,2.65,7.721,101.3,101.3,0,0,0,8.412,10.025A106.12,106.12,0,0,1,62.111-59a28.086,28.086,0,0,1,4.264,15.441q0,11.984-4.609,20.281Q56.7-14.75,45.287-7.375T24.43,0ZM159.254-15.441q0,8.988-10.141,12.1A74.3,74.3,0,0,1,127.219-.23a49.114,49.114,0,0,1-17.861-3.342A33.428,33.428,0,0,1,95.184-13.713a24.937,24.937,0,0,1-5.531-16.248q0-6.684,5.07-17.055a67.819,67.819,0,0,1,12.561-17.977q7.49-7.605,14.4-7.605,4.379,0,10.025,4.148t5.646,8.3q0,5.07-3.227,5.07a10.668,10.668,0,0,1-3.342-.807,10.9,10.9,0,0,0-3.572-.807q-3.227,0-7.029,5.3a54,54,0,0,0-6.453,12.215q-2.65,6.914-2.65,10.141,0,4.609,6.338,6.338a47.577,47.577,0,0,0,12.561,1.729,15.959,15.959,0,0,0,4.84-.807q2.535-.807,4.84-1.729,5.992-2.535,9.68-2.535a9.2,9.2,0,0,1,7.26,3A11.054,11.054,0,0,1,159.254-15.441ZM195.438,0a10.483,10.483,0,0,1-7.721-3.111,10.483,10.483,0,0,1-3.111-7.721q0-23.277-3.687-38.949a43.82,43.82,0,0,0-2.535-7.605q-.461-1.152-1.729-4.955a20.493,20.493,0,0,1-1.268-6.107,11.18,11.18,0,0,1,3.227-7.836,9.847,9.847,0,0,1,7.375-3.457,5.647,5.647,0,0,1,4.84,2.65,31.494,31.494,0,0,1,3.457,7.029A17.183,17.183,0,0,0,195.9-66.49q.922,1.5,1.844,1.5t5.3-3.227a102.422,102.422,0,0,1,8.873-5.877,14.943,14.943,0,0,1,7.49-2.189,12.63,12.63,0,0,1,7.26,1.959,6.866,6.866,0,0,1,2.881,6.107q0,5.07-2.535,7.375a28.657,28.657,0,0,1-8.066,4.609A29.391,29.391,0,0,0,208-49.436q-3.8,4.033-3.8,13.482a65.86,65.86,0,0,0,1.383,10.832q1.152,8.527,1.152,10.832a16.621,16.621,0,0,1-3.227,9.68Q200.277,0,195.438,0ZM304.68-.23a10.7,10.7,0,0,1-6.914-2.65,75,75,0,0,1-7.605-7.49q-.922-.922-2.766-2.881a6.791,6.791,0,0,0-3-2.189,49.365,49.365,0,0,0-5.762,5.762,40.43,40.43,0,0,1-6.684,6.568,12.161,12.161,0,0,1-7.375,2.189,20.914,20.914,0,0,1-11.293-3.687q-5.762-3.687-7.145-8.758a32.354,32.354,0,0,1-.691-7.836l.23-27.887q0-15.9,6.223-15.9,3.457,0,4.494,1.959a10.5,10.5,0,0,1,1.152,4.494q.115,2.535.115,3.688l2.535,27.2a46.961,46.961,0,0,0,.922,4.725A2.021,2.021,0,0,0,263.2-21.2q4.609,0,8.3-11.639a197.537,197.537,0,0,0,5.762-22.471q.23-1.152.691-4.148a13.923,13.923,0,0,1,1.613-4.955,8.054,8.054,0,0,1,3.457-3.111,6.606,6.606,0,0,1,3-.691,9.189,9.189,0,0,1,6.914,3.227,10.272,10.272,0,0,1,3,7.145,61.437,61.437,0,0,1-.23,6.223l-.23,6.223a30.431,30.431,0,0,0,1.152,8.988q1.152,3.687,7.605,14.289,4.148,6.684,5.992,10.025a12.117,12.117,0,0,1,1.844,5.416,5.675,5.675,0,0,1-2.3,4.609A7.933,7.933,0,0,1,304.68-.23Zm78.129,2.3q-7.605,0-7.605-12.906a185.84,185.84,0,0,1,1.383-18.9,185.84,185.84,0,0,0,1.383-18.9q0-1.844-.922-1.844-2.074,0-3.918,6.107T371.055-37.8a54.957,54.957,0,0,0-1.383,7.836,60.772,60.772,0,0,1-3.457,15.326q-2.3,5.646-7.836,5.646a5.3,5.3,0,0,1-4.84-2.65,11.51,11.51,0,0,1-1.613-6.107q0-5.531,2.3-16.594,2.3-10.6,2.3-16.363a14.413,14.413,0,0,0-.461-3.111q-.461-1.959-1.383-1.959-3,0-6.453,8.873a155.56,155.56,0,0,0-6.107,19.82q-2.65,10.947-3.342,15.557Q337.406-2.3,331.184-2.3q-3.688,0-4.955-3.8a25.715,25.715,0,0,1-1.268-8.182q0-8.3,2.074-31.8t3.688-26.965a6.733,6.733,0,0,1,1.729-2.65,4.672,4.672,0,0,1,2.65-.576,4.99,4.99,0,0,1,4.84,2.65,23.221,23.221,0,0,1,2.074,7.029q.691,4.379,1.844,4.379.691,0,2.3-1.844a13.78,13.78,0,0,1,4.033-3.111,14.882,14.882,0,0,1,6.8-1.268,11.592,11.592,0,0,1,5.992,1.268,18.237,18.237,0,0,1,3.8,3.111q1.729,1.844,2.42,1.844a32.394,32.394,0,0,0,4.148-3.918,27.139,27.139,0,0,1,4.264-3.918,8.388,8.388,0,0,1,4.955-1.383q7.605,0,9.68,7.029a62.367,62.367,0,0,1,2.074,17.4,229.657,229.657,0,0,1-2.42,31.92Q389.492,2.074,382.809,2.074Z" transform="translate(560 -297)" fill="#2f454f"/>
    <g id="Group_47" data-name="Group 47" transform="translate(1438.278 -357.922)">
      <path id="Path_8" data-name="Path 8" d="M410.137,60.333C421.261,55.4,424.349,67,431.945,72.23a49.381,49.381,0,0,1,5.541,3.8c6.582,6,.251,13.1-5.813,15.819a49.421,49.421,0,0,1-26.684,3.874,22.393,22.393,0,0,1-9.592-3.2c-3.173-2.136-5.923-6.244-4.888-10.216.977-3.746,4.732-5.241,6.971-8.05,3.735-4.685,5.745-10.311,11.341-13.28.452-.239.89-.452,1.316-.641" transform="translate(-379.093 -41.198)" fill="#2f454f"/>
      <path id="Path_9" data-name="Path 9" d="M393.622,58.382a6,6,0,0,1,5.7,2.725,8.415,8.415,0,0,1,1,6.413,14.288,14.288,0,0,1-3.057,5.859c-1.869,2.278-4.5,4.285-7.443,4.157-3.59-.155-6.429-3.683-6.6-7.273-.28-5.75,4.844-11.036,10.409-11.882" transform="translate(-383.202 -41.668)" fill="#2f454f"/>
      <path id="Path_10" data-name="Path 10" d="M405.6,48.1a5.55,5.55,0,0,1,3.884,4.362,7.77,7.77,0,0,1-1.441,5.827,13.217,13.217,0,0,1-4.7,3.9c-2.411,1.277-5.369,2.048-7.837.886-3.008-1.417-4.168-5.441-3.034-8.567,1.819-5,8.078-7.68,13.128-6.413" transform="translate(-378.074 -47.783)" fill="#2f454f"/>
      <path id="Path_11" data-name="Path 11" d="M423.163,53.776a5.551,5.551,0,0,1-.51,5.818,7.777,7.777,0,0,1-5.23,2.95,13.258,13.258,0,0,1-6.066-.744c-2.582-.88-5.171-2.5-6.018-5.1-1.033-3.16,1.1-6.766,4.152-8.082,4.888-2.109,11.131.61,13.672,5.154" transform="translate(-370.516 -47.718)" fill="#2f454f"/>
      <path id="Path_12" data-name="Path 12" d="M434.476,65.785a5.81,5.81,0,0,1-2.212,5.731A8.334,8.334,0,0,1,426.074,73a14.069,14.069,0,0,1-5.968-2.485c-2.378-1.626-4.549-4.005-4.658-6.865-.134-3.487,3.087-6.517,6.585-6.976,5.6-.733,11.17,3.8,12.442,9.112" transform="translate(-364.502 -42.672)" fill="#2f454f"/>
    </g>
  </g>
</svg>
